# Blender v2.79 (sub 0) OBJ File: 'melee.blend'
# www.blender.org
mtllib melee.mtl
o Circle.004
v 0.000000 0.000000 0.000000
v 0.975452 0.000000 -4.903926
v -0.000000 0.000000 -5.000000
v -0.975452 0.000000 -4.903926
v -0.000000 0.000000 -4.899934
v 0.856345 0.000000 -4.815591
v -0.856346 0.000000 -4.815591
v 0.000000 0.000000 -0.510453
v 1.530732 0.004000 -3.695519
v 0.780359 0.004000 -3.923142
v -0.000003 0.004000 -4.000000
v -0.780364 0.004000 -3.923141
v -1.530737 0.004000 -3.695517
v 0.000000 0.004000 0.000000
v 0.760891 0.004000 -3.825268
v 1.397049 0.004000 -3.632291
v -0.000003 0.004000 -3.900208
v -0.760896 0.004000 -3.825267
v -1.397053 0.004000 -3.632290
v -0.000000 0.004000 -0.259512
v 2.121320 0.008000 -2.121320
v 1.666710 0.008000 -2.494409
v 1.148050 0.008000 -2.771638
v 0.585271 0.008000 -2.942356
v -0.000000 0.008000 -3.000000
v -0.585272 0.008000 -2.942356
v -1.148051 0.008000 -2.771638
v -1.666712 0.008000 -2.494408
v -2.121321 0.008000 -2.121319
v 0.000000 0.008000 0.000000
v 1.611099 0.008000 -2.411180
v 1.973163 0.008000 -2.114042
v 1.109744 0.008000 -2.679160
v 0.565742 0.008000 -2.844181
v -0.000000 0.008000 -2.899901
v -0.565744 0.008000 -2.844181
v -1.109745 0.008000 -2.679159
v -1.611100 0.008000 -2.411179
v -1.973164 0.008000 -2.114041
v -0.000000 0.008000 -0.140879
v 0.000000 0.012000 -2.000000
v -0.390181 0.012000 -1.961570
v -0.765367 0.012000 -1.847759
v -1.111140 0.012000 -1.662939
v -1.414213 0.012000 -1.414214
v -1.662939 0.012000 -1.111140
v -1.847759 0.012000 -0.765367
v -1.961571 0.012000 -0.390181
v -2.000000 0.012000 -0.000000
v 0.000000 0.012000 0.000000
v 2.000000 0.012000 -0.000002
v 1.961570 0.012000 -0.390183
v 1.847758 0.012000 -0.765369
v 1.662938 0.012000 -1.111142
v 1.414212 0.012000 -1.414215
v 1.111138 0.012000 -1.662941
v 0.765364 0.012000 -1.847760
v 0.390178 0.012000 -1.961571
v -0.370773 0.012000 -1.864001
v 0.000000 0.012000 -1.900519
v -0.727297 0.012000 -1.755851
v -1.055872 0.012000 -1.580224
v -1.343870 0.012000 -1.343870
v -1.580224 0.012000 -1.055872
v -1.755851 0.012000 -0.727297
v -1.864001 0.012000 -0.370773
v -1.890768 0.012000 -0.099002
v 1.864001 0.012000 -0.370775
v 1.890768 0.012000 -0.099003
v 1.755850 0.012000 -0.727299
v 1.580223 0.012000 -1.055874
v 1.343868 0.012000 -1.343872
v 1.055870 0.012000 -1.580226
v 0.727295 0.012000 -1.755852
v 0.370770 0.012000 -1.864002
v -0.000000 0.012000 -0.099002
v -0.707107 0.016000 -0.707107
v -0.831470 0.016000 -0.555570
v -0.923880 0.016000 -0.382683
v -0.980785 0.016000 -0.195090
v -1.000000 0.016000 0.000000
v -0.980785 0.016000 0.195090
v -0.923879 0.016000 0.382683
v -0.831470 0.016000 0.555570
v -0.707107 0.016000 0.707107
v 0.000000 0.016000 0.000000
v 0.707107 0.016000 0.707107
v 0.831470 0.016000 0.555570
v 0.923880 0.016000 0.382683
v 0.980785 0.016000 0.195090
v 1.000000 0.016000 -0.000001
v 0.980785 0.016000 -0.195091
v 0.923879 0.016000 -0.382684
v 0.831469 0.016000 -0.555571
v 0.707106 0.016000 -0.707107
v 0.555569 0.016000 -0.831470
v 0.382682 0.016000 -0.923880
v 0.195089 0.016000 -0.980785
v -0.000001 0.016000 -1.000000
v -0.195092 0.016000 -0.980785
v -0.382685 0.016000 -0.923879
v -0.555571 0.016000 -0.831469
v -0.748268 0.016000 -0.499977
v -0.636350 0.016000 -0.636350
v -0.831431 0.016000 -0.344390
v -0.882643 0.016000 -0.175569
v -0.899935 0.016000 -0.000000
v -0.882643 0.016000 0.175569
v -0.831431 0.016000 0.344390
v -0.748268 0.016000 0.499977
v -0.699831 0.016000 0.558998
v 0.748269 0.016000 0.499977
v 0.699831 0.016000 0.558998
v 0.831431 0.016000 0.344390
v 0.882643 0.016000 0.175568
v 0.899935 0.016000 -0.000001
v 0.882643 0.016000 -0.175569
v 0.831431 0.016000 -0.344391
v 0.748268 0.016000 -0.499978
v 0.636349 0.016000 -0.636351
v 0.499976 0.016000 -0.748269
v 0.344389 0.016000 -0.831432
v 0.175567 0.016000 -0.882643
v -0.000001 0.016000 -0.899935
v -0.175570 0.016000 -0.882642
v -0.344391 0.016000 -0.831431
v -0.499978 0.016000 -0.748268
v -0.000000 0.016000 -0.140832
vt 0.100000 0.850000
vt 0.900000 0.850000
vt 0.900000 0.983333
vt 0.100000 0.983333
vt 0.100000 0.850000
vt 0.900000 0.850000
vt 0.900000 0.983333
vt 0.100000 0.983333
vt 0.100000 0.850000
vt 0.900000 0.850000
vt 0.900000 0.983333
vt 0.100000 0.983333
vt 0.100000 0.850000
vt 0.900000 0.850000
vt 0.900000 0.983333
vt 0.100000 0.983333
vt 0.100000 0.683333
vt 0.900000 0.683333
vt 0.900000 0.816667
vt 0.100000 0.816667
vt 0.100000 0.683333
vt 0.900000 0.683333
vt 0.900000 0.816667
vt 0.100000 0.816667
vt 0.100000 0.683333
vt 0.900000 0.683333
vt 0.900000 0.816667
vt 0.100000 0.816667
vt 0.100000 0.683333
vt 0.900000 0.683333
vt 0.900000 0.816667
vt 0.100000 0.816667
vt 0.100000 0.683333
vt 0.900000 0.683333
vt 0.900000 0.816667
vt 0.100000 0.816667
vt 0.100000 0.683333
vt 0.900000 0.683333
vt 0.900000 0.816667
vt 0.100000 0.816667
vt 0.100000 0.516667
vt 0.900000 0.516667
vt 0.900000 0.650000
vt 0.100000 0.650000
vt 0.100000 0.516667
vt 0.900000 0.516667
vt 0.900000 0.650000
vt 0.100000 0.650000
vt 0.100000 0.516667
vt 0.900000 0.516667
vt 0.900000 0.650000
vt 0.100000 0.650000
vt 0.100000 0.516667
vt 0.900000 0.516667
vt 0.900000 0.650000
vt 0.100000 0.650000
vt 0.100000 0.516667
vt 0.900000 0.516667
vt 0.900000 0.650000
vt 0.100000 0.650000
vt 0.100000 0.516667
vt 0.900000 0.516667
vt 0.900000 0.650000
vt 0.100000 0.650000
vt 0.100000 0.516667
vt 0.900000 0.516667
vt 0.900000 0.650000
vt 0.100000 0.650000
vt 0.100000 0.516667
vt 0.900000 0.516667
vt 0.900000 0.650000
vt 0.100000 0.650000
vt 0.100000 0.516667
vt 0.900000 0.516667
vt 0.900000 0.650000
vt 0.100000 0.650000
vt 0.100000 0.516667
vt 0.900000 0.516667
vt 0.900000 0.650000
vt 0.100000 0.650000
vt 0.100000 0.350000
vt 0.900000 0.350000
vt 0.900000 0.483333
vt 0.100000 0.483333
vt 0.100000 0.350000
vt 0.900000 0.350000
vt 0.900000 0.483333
vt 0.100000 0.483333
vt 0.100000 0.350000
vt 0.900000 0.350000
vt 0.900000 0.483333
vt 0.100000 0.483333
vt 0.100000 0.350000
vt 0.900000 0.350000
vt 0.900000 0.483333
vt 0.100000 0.483333
vt 0.100000 0.350000
vt 0.900000 0.350000
vt 0.900000 0.483333
vt 0.100000 0.483333
vt 0.100000 0.350000
vt 0.900000 0.350000
vt 0.900000 0.483333
vt 0.100000 0.483333
vt 0.100000 0.350000
vt 0.900000 0.350000
vt 0.900000 0.483333
vt 0.100000 0.483333
vt 0.100000 0.350000
vt 0.900000 0.350000
vt 0.900000 0.483333
vt 0.100000 0.483333
vt 0.100000 0.350000
vt 0.900000 0.350000
vt 0.900000 0.483333
vt 0.100000 0.483333
vt 0.100000 0.350000
vt 0.900000 0.350000
vt 0.900000 0.483333
vt 0.100000 0.483333
vt 0.100000 0.350000
vt 0.900000 0.350000
vt 0.900000 0.483333
vt 0.100000 0.483333
vt 0.100000 0.350000
vt 0.900000 0.350000
vt 0.900000 0.483333
vt 0.100000 0.483333
vt 0.100000 0.350000
vt 0.900000 0.350000
vt 0.900000 0.483333
vt 0.100000 0.483333
vt 0.100000 0.350000
vt 0.900000 0.350000
vt 0.900000 0.483333
vt 0.100000 0.483333
vt 0.100000 0.350000
vt 0.900000 0.350000
vt 0.900000 0.483333
vt 0.100000 0.483333
vt 0.100000 0.350000
vt 0.900000 0.350000
vt 0.900000 0.483333
vt 0.100000 0.483333
vt 0.100000 0.350000
vt 0.900000 0.350000
vt 0.900000 0.483333
vt 0.100000 0.483333
vt 0.100000 0.350000
vt 0.900000 0.350000
vt 0.900000 0.483333
vt 0.100000 0.483333
vt 0.100000 0.183333
vt 0.900000 0.183333
vt 0.900000 0.316667
vt 0.100000 0.316667
vt 0.100000 0.183333
vt 0.900000 0.183333
vt 0.900000 0.316667
vt 0.100000 0.316667
vt 0.100000 0.183333
vt 0.900000 0.183333
vt 0.900000 0.316667
vt 0.100000 0.316667
vt 0.100000 0.183333
vt 0.900000 0.183333
vt 0.900000 0.316667
vt 0.100000 0.316667
vt 0.100000 0.183333
vt 0.900000 0.183333
vt 0.900000 0.316667
vt 0.100000 0.316667
vt 0.100000 0.183333
vt 0.900000 0.183333
vt 0.900000 0.316667
vt 0.100000 0.316667
vt 0.100000 0.183333
vt 0.900000 0.183333
vt 0.900000 0.316667
vt 0.100000 0.316667
vt 0.100000 0.183333
vt 0.900000 0.183333
vt 0.900000 0.316667
vt 0.100000 0.316667
vt 0.100000 0.183333
vt 0.900000 0.183333
vt 0.900000 0.316667
vt 0.100000 0.316667
vt 0.100000 0.183333
vt 0.900000 0.183333
vt 0.900000 0.316667
vt 0.100000 0.316667
vt 0.100000 0.183333
vt 0.900000 0.183333
vt 0.900000 0.316667
vt 0.100000 0.316667
vt 0.100000 0.183333
vt 0.900000 0.183333
vt 0.900000 0.316667
vt 0.100000 0.316667
vt 0.100000 0.183333
vt 0.900000 0.183333
vt 0.900000 0.316667
vt 0.100000 0.316667
vt 0.100000 0.183333
vt 0.900000 0.183333
vt 0.900000 0.316667
vt 0.100000 0.316667
vt 0.100000 0.183333
vt 0.900000 0.183333
vt 0.900000 0.316667
vt 0.100000 0.316667
vt 0.100000 0.183333
vt 0.900000 0.183333
vt 0.900000 0.316667
vt 0.100000 0.316667
vt 0.100000 0.183333
vt 0.900000 0.183333
vt 0.900000 0.316667
vt 0.100000 0.316667
vt 0.100000 0.183333
vt 0.900000 0.183333
vt 0.900000 0.316667
vt 0.100000 0.316667
vt 0.100000 0.183333
vt 0.900000 0.183333
vt 0.900000 0.316667
vt 0.100000 0.316667
vt 0.100000 0.183333
vt 0.900000 0.183333
vt 0.900000 0.316667
vt 0.100000 0.316667
vt 0.100000 0.183333
vt 0.900000 0.183333
vt 0.900000 0.316667
vt 0.100000 0.316667
vt 0.100000 0.183333
vt 0.900000 0.183333
vt 0.900000 0.316667
vt 0.100000 0.316667
vt 0.100000 0.183333
vt 0.900000 0.183333
vt 0.900000 0.316667
vt 0.100000 0.316667
vt 0.100000 0.183333
vt 0.900000 0.183333
vt 0.900000 0.316667
vt 0.100000 0.316667
vt 0.100000 0.183333
vt 0.900000 0.183333
vt 0.900000 0.316667
vt 0.100000 0.316667
vt 0.100000 0.183333
vt 0.900000 0.183333
vt 0.900000 0.316667
vt 0.100000 0.316667
vn 0.0000 1.0000 0.0000
usemtl None
s off
f 5/1/1 6/2/1 2/3/1 3/4/1
f 7/5/1 5/6/1 3/7/1 4/8/1
f 6/9/1 8/10/1 1/11/1 2/12/1
f 8/13/1 7/14/1 4/15/1 1/16/1
f 15/17/1 16/18/1 9/19/1 10/20/1
f 17/21/1 15/22/1 10/23/1 11/24/1
f 18/25/1 17/26/1 11/27/1 12/28/1
f 19/29/1 18/30/1 12/31/1 13/32/1
f 16/33/1 20/34/1 14/35/1 9/36/1
f 20/37/1 19/38/1 13/39/1 14/40/1
f 31/41/1 32/42/1 21/43/1 22/44/1
f 33/45/1 31/46/1 22/47/1 23/48/1
f 34/49/1 33/50/1 23/51/1 24/52/1
f 35/53/1 34/54/1 24/55/1 25/56/1
f 36/57/1 35/58/1 25/59/1 26/60/1
f 37/61/1 36/62/1 26/63/1 27/64/1
f 38/65/1 37/66/1 27/67/1 28/68/1
f 39/69/1 38/70/1 28/71/1 29/72/1
f 32/73/1 40/74/1 30/75/1 21/76/1
f 40/77/1 39/78/1 29/79/1 30/80/1
f 59/81/1 60/82/1 41/83/1 42/84/1
f 61/85/1 59/86/1 42/87/1 43/88/1
f 62/89/1 61/90/1 43/91/1 44/92/1
f 63/93/1 62/94/1 44/95/1 45/96/1
f 64/97/1 63/98/1 45/99/1 46/100/1
f 65/101/1 64/102/1 46/103/1 47/104/1
f 66/105/1 65/106/1 47/107/1 48/108/1
f 67/109/1 66/110/1 48/111/1 49/112/1
f 68/113/1 69/114/1 51/115/1 52/116/1
f 70/117/1 68/118/1 52/119/1 53/120/1
f 71/121/1 70/122/1 53/123/1 54/124/1
f 72/125/1 71/126/1 54/127/1 55/128/1
f 73/129/1 72/130/1 55/131/1 56/132/1
f 74/133/1 73/134/1 56/135/1 57/136/1
f 75/137/1 74/138/1 57/139/1 58/140/1
f 60/141/1 75/142/1 58/143/1 41/144/1
f 76/145/1 67/146/1 49/147/1 50/148/1
f 69/149/1 76/150/1 50/151/1 51/152/1
f 103/153/1 104/154/1 77/155/1 78/156/1
f 105/157/1 103/158/1 78/159/1 79/160/1
f 106/161/1 105/162/1 79/163/1 80/164/1
f 107/165/1 106/166/1 80/167/1 81/168/1
f 108/169/1 107/170/1 81/171/1 82/172/1
f 109/173/1 108/174/1 82/175/1 83/176/1
f 110/177/1 109/178/1 83/179/1 84/180/1
f 111/181/1 110/182/1 84/183/1 85/184/1
f 112/185/1 113/186/1 87/187/1 88/188/1
f 114/189/1 112/190/1 88/191/1 89/192/1
f 115/193/1 114/194/1 89/195/1 90/196/1
f 116/197/1 115/198/1 90/199/1 91/200/1
f 117/201/1 116/202/1 91/203/1 92/204/1
f 118/205/1 117/206/1 92/207/1 93/208/1
f 119/209/1 118/210/1 93/211/1 94/212/1
f 120/213/1 119/214/1 94/215/1 95/216/1
f 121/217/1 120/218/1 95/219/1 96/220/1
f 122/221/1 121/222/1 96/223/1 97/224/1
f 123/225/1 122/226/1 97/227/1 98/228/1
f 124/229/1 123/230/1 98/231/1 99/232/1
f 125/233/1 124/234/1 99/235/1 100/236/1
f 126/237/1 125/238/1 100/239/1 101/240/1
f 127/241/1 126/242/1 101/243/1 102/244/1
f 104/245/1 127/246/1 102/247/1 77/248/1
f 128/249/1 111/250/1 85/251/1 86/252/1
f 113/253/1 128/254/1 86/255/1 87/256/1
