# Blender v2.79 (sub 0) OBJ File: 'circ3.blend'
# www.blender.org
mtllib range.mtl
o Cylinder.001_Cylinder.024
v -0.500000 0.000000 -1.000000
v -0.500000 1.000000 -1.000000
v -0.402455 0.000000 -0.990393
v -0.402455 1.000000 -0.990393
v -0.308658 0.000000 -0.961940
v -0.308658 1.000000 -0.961940
v -0.222215 0.000000 -0.915735
v -0.222215 1.000000 -0.915735
v -0.146447 0.000000 -0.853553
v -0.146447 1.000000 -0.853553
v -0.084265 0.000000 -0.777785
v -0.084265 1.000000 -0.777785
v -0.038060 0.000000 -0.691342
v -0.038060 1.000000 -0.691342
v -0.009607 0.000000 -0.597545
v -0.009607 1.000000 -0.597545
v 0.000000 0.000000 -0.500000
v 0.000000 1.000000 -0.500000
v -0.009607 0.000000 -0.402455
v -0.009607 1.000000 -0.402455
v -0.038060 0.000000 -0.308658
v -0.038060 1.000000 -0.308658
v -0.084265 0.000000 -0.222215
v -0.084265 1.000000 -0.222215
v -0.146447 0.000000 -0.146447
v -0.146447 1.000000 -0.146447
v -0.222215 0.000000 -0.084265
v -0.222215 1.000000 -0.084265
v -0.308658 0.000000 -0.038060
v -0.308658 1.000000 -0.038060
v -0.402455 0.000000 -0.009607
v -0.402455 1.000000 -0.009607
v -0.500000 0.000000 0.000000
v -0.500000 1.000000 0.000000
v -0.597545 0.000000 -0.009607
v -0.597545 1.000000 -0.009607
v -0.691342 0.000000 -0.038060
v -0.691342 1.000000 -0.038060
v -0.777785 0.000000 -0.084265
v -0.777785 1.000000 -0.084265
v -0.853554 0.000000 -0.146447
v -0.853554 1.000000 -0.146447
v -0.915735 0.000000 -0.222215
v -0.915735 1.000000 -0.222215
v -0.961940 0.000000 -0.308659
v -0.961940 1.000000 -0.308659
v -0.990393 0.000000 -0.402455
v -0.990393 1.000000 -0.402455
v -1.000000 0.000000 -0.500000
v -1.000000 1.000000 -0.500000
v -0.990393 0.000000 -0.597546
v -0.990393 1.000000 -0.597546
v -0.961940 0.000000 -0.691342
v -0.961940 1.000000 -0.691342
v -0.915734 0.000000 -0.777786
v -0.915734 1.000000 -0.777786
v -0.853553 0.000000 -0.853554
v -0.853553 1.000000 -0.853554
v -0.777785 0.000000 -0.915735
v -0.777785 1.000000 -0.915735
v -0.691341 0.000000 -0.961940
v -0.691341 1.000000 -0.961940
v -0.597544 0.000000 -0.990393
v -0.597544 1.000000 -0.990393
vn 0.0980 0.0000 -0.9952
vn 0.2903 0.0000 -0.9569
vn 0.4714 0.0000 -0.8819
vn 0.6344 0.0000 -0.7730
vn 0.7730 0.0000 -0.6344
vn 0.8819 0.0000 -0.4714
vn 0.9569 0.0000 -0.2903
vn 0.9952 0.0000 -0.0980
vn 0.9952 0.0000 0.0980
vn 0.9569 0.0000 0.2903
vn 0.8819 0.0000 0.4714
vn 0.7730 0.0000 0.6344
vn 0.6344 0.0000 0.7730
vn 0.4714 0.0000 0.8819
vn 0.2903 0.0000 0.9569
vn 0.0980 0.0000 0.9952
vn -0.0980 0.0000 0.9952
vn -0.2903 0.0000 0.9569
vn -0.4714 0.0000 0.8819
vn -0.6344 0.0000 0.7730
vn -0.7730 0.0000 0.6344
vn -0.8819 0.0000 0.4714
vn -0.9569 0.0000 0.2903
vn -0.9952 0.0000 0.0980
vn -0.9952 0.0000 -0.0980
vn -0.9569 0.0000 -0.2903
vn -0.8819 0.0000 -0.4714
vn -0.7730 0.0000 -0.6344
vn -0.6344 0.0000 -0.7730
vn -0.4714 0.0000 -0.8819
vn 0.0000 1.0000 0.0000
vn -0.2903 0.0000 -0.9569
vn -0.0980 0.0000 -0.9952
vn 0.0000 -1.0000 0.0000
usemtl None
s off
f 1//1 2//1 4//1 3//1
f 3//2 4//2 6//2 5//2
f 5//3 6//3 8//3 7//3
f 7//4 8//4 10//4 9//4
f 9//5 10//5 12//5 11//5
f 11//6 12//6 14//6 13//6
f 13//7 14//7 16//7 15//7
f 15//8 16//8 18//8 17//8
f 17//9 18//9 20//9 19//9
f 19//10 20//10 22//10 21//10
f 21//11 22//11 24//11 23//11
f 23//12 24//12 26//12 25//12
f 25//13 26//13 28//13 27//13
f 27//14 28//14 30//14 29//14
f 29//15 30//15 32//15 31//15
f 31//16 32//16 34//16 33//16
f 33//17 34//17 36//17 35//17
f 35//18 36//18 38//18 37//18
f 37//19 38//19 40//19 39//19
f 39//20 40//20 42//20 41//20
f 41//21 42//21 44//21 43//21
f 43//22 44//22 46//22 45//22
f 45//23 46//23 48//23 47//23
f 47//24 48//24 50//24 49//24
f 49//25 50//25 52//25 51//25
f 51//26 52//26 54//26 53//26
f 53//27 54//27 56//27 55//27
f 55//28 56//28 58//28 57//28
f 57//29 58//29 60//29 59//29
f 59//30 60//30 62//30 61//30
f 54//31 38//31 22//31
f 61//32 62//32 64//32 63//32
f 63//33 64//33 2//33 1//33
f 15//34 31//34 47//34
f 6//31 4//31 2//31
f 2//31 64//31 6//31
f 64//31 62//31 6//31
f 62//31 60//31 58//31
f 58//31 56//31 54//31
f 54//31 52//31 50//31
f 50//31 48//31 54//31
f 48//31 46//31 54//31
f 46//31 44//31 38//31
f 44//31 42//31 38//31
f 42//31 40//31 38//31
f 38//31 36//31 34//31
f 34//31 32//31 30//31
f 30//31 28//31 26//31
f 26//31 24//31 22//31
f 22//31 20//31 18//31
f 18//31 16//31 22//31
f 16//31 14//31 22//31
f 14//31 12//31 10//31
f 10//31 8//31 6//31
f 62//31 58//31 6//31
f 58//31 54//31 6//31
f 38//31 34//31 22//31
f 34//31 30//31 22//31
f 30//31 26//31 22//31
f 14//31 10//31 22//31
f 10//31 6//31 22//31
f 54//31 46//31 38//31
f 6//31 54//31 22//31
f 63//34 1//34 3//34
f 3//34 5//34 7//34
f 7//34 9//34 11//34
f 11//34 13//34 7//34
f 13//34 15//34 7//34
f 15//34 17//34 19//34
f 19//34 21//34 15//34
f 21//34 23//34 15//34
f 23//34 25//34 31//34
f 25//34 27//34 31//34
f 27//34 29//34 31//34
f 31//34 33//34 35//34
f 35//34 37//34 39//34
f 39//34 41//34 43//34
f 43//34 45//34 47//34
f 47//34 49//34 51//34
f 51//34 53//34 55//34
f 55//34 57//34 63//34
f 57//34 59//34 63//34
f 59//34 61//34 63//34
f 63//34 3//34 7//34
f 31//34 35//34 47//34
f 35//34 39//34 47//34
f 39//34 43//34 47//34
f 47//34 51//34 63//34
f 51//34 55//34 63//34
f 63//34 7//34 15//34
f 15//34 23//34 31//34
f 63//34 15//34 47//34
o Cylinder.010_Cylinder.017
v -0.500000 0.180000 -0.642113
v -1.277256 0.180000 -1.663247
v -1.489260 0.180000 -1.489260
v -1.035384 0.180000 -1.792530
v -0.772936 0.180000 -1.872143
v -0.500000 0.180000 -1.899025
v -0.227064 0.180000 -1.872143
v 0.035384 0.180000 -1.792530
v 0.277256 0.180000 -1.663247
v 0.489260 0.180000 -1.489260
v 0.663247 0.180000 -1.277257
v 0.792530 0.180000 -1.035384
v 0.872143 0.180000 -0.772936
v 0.899025 0.180000 -0.500000
v 0.872143 0.180000 -0.227064
v 0.792530 0.180000 0.035384
v 0.663246 0.180000 0.277257
v 0.553318 0.180000 0.411205
v -1.553319 0.180000 0.411204
v -1.663247 0.180000 0.277255
v -1.792531 0.180000 0.035382
v -1.872143 0.180000 -0.227066
v -1.899025 0.180000 -0.500002
v -1.872143 0.180000 -0.772938
v -1.792529 0.180000 -1.035385
v -1.663245 0.180000 -1.277258
v -1.333355 0.180000 -1.747204
v -1.560660 0.180000 -1.560660
v -1.074025 0.180000 -1.885819
v -0.792635 0.180000 -1.971178
v -0.500000 0.180000 -2.000000
v -0.207364 0.180000 -1.971178
v 0.074025 0.180000 -1.885819
v 0.333355 0.180000 -1.747204
v 0.560660 0.180000 -1.560660
v 0.747204 0.180000 -1.333355
v 0.885819 0.180000 -1.074025
v 0.971178 0.180000 -0.792636
v 1.000000 0.180000 -0.500000
v 0.971178 0.180000 -0.207364
v 0.885819 0.180000 0.074025
v 0.747204 0.180000 0.333356
v 0.560660 0.180000 0.560660
v -1.747205 0.180000 0.333354
v -1.560661 0.180000 0.560659
v -1.885820 0.180000 0.074024
v -1.971178 0.180000 -0.207366
v -2.000000 0.180000 -0.500002
v -1.971177 0.180000 -0.792637
v -1.885818 0.180000 -1.074027
v -1.747203 0.180000 -1.333357
v -0.500000 0.180000 -0.500000
v -1.286719 0.055138 -5.036588
v -0.500452 0.055138 -5.114107
v -0.500772 0.055138 -5.899331
v -1.440173 0.055138 -5.806671
v 0.438681 0.055138 -5.806938
v 0.285599 0.055138 -5.036765
v -0.500788 0.055138 -6.013800
v -1.576462 0.055138 -5.907700
v 0.574917 0.055138 -5.908007
v 0.377202 0.055138 -4.913285
v -0.500440 0.055138 -4.999638
v -1.378268 0.055138 -4.913092
v 1.090535 0.094492 -4.594657
v 0.359070 0.094492 -4.816623
v -0.499569 0.094492 -4.901277
v -1.358224 0.094492 -4.816791
v -2.089769 0.094493 -4.594958
v -1.203431 0.094492 -4.036369
v -1.785358 0.094492 -3.859842
v 0.785733 0.094492 -3.859729
v -0.500003 0.094492 -4.105651
v 0.203425 0.094492 -4.036370
v 1.222345 0.094491 -4.656955
v 0.378269 0.094492 -4.913093
v -0.499559 0.094492 -4.999639
v -1.377404 0.094492 -4.913264
v -2.221530 0.094493 -4.657292
v -1.184242 0.094492 -3.939897
v -1.841852 0.094493 -3.740413
v -0.500003 0.094492 -4.007289
v 0.184235 0.094492 -3.939899
v 0.842179 0.094492 -3.740314
v -2.823381 0.122755 -2.972334
v -2.389747 0.122755 -3.328208
v -1.801680 0.122755 -3.642536
v -1.163590 0.122755 -3.836099
v -0.499998 0.122755 -3.901457
v 0.163593 0.122755 -3.836098
v 0.801683 0.122755 -3.642535
v 1.389750 0.122755 -3.328206
v 1.823384 0.122755 -2.972331
v -2.259283 0.122755 -2.408237
v -1.946537 0.122755 -2.664901
v -1.496390 0.122755 -2.905508
v -1.007953 0.122755 -3.053673
v -0.500000 0.122755 -3.103702
v 0.007957 0.122755 -3.053672
v 0.496393 0.122755 -2.905507
v 0.946539 0.122755 -2.664899
v 1.259284 0.122755 -2.408235
v -2.448545 0.122755 -3.416206
v -2.980028 0.122755 -2.980029
v -1.842180 0.122755 -3.740314
v -1.184237 0.122755 -3.939899
v -0.499998 0.122755 -4.007290
v 0.184240 0.122755 -3.939898
v 0.842185 0.122755 -3.740313
v 1.448548 0.122755 -3.416204
v 1.980031 0.122755 -2.980027
v -2.266257 0.122755 -2.266261
v 1.266259 0.122755 -2.266259
v -1.887739 0.122755 -2.576903
v -1.455890 0.122755 -2.807730
v -0.987306 0.122755 -2.949872
v -0.500000 0.122755 -2.997868
v -0.012690 0.122755 -2.949872
v 0.887741 0.122755 -2.576901
v 0.455893 0.122755 -2.807729
v -0.031715 0.149872 -2.854226
v -0.500000 0.149872 -2.900348
v 0.418573 0.149872 -2.717632
v 0.833562 0.149872 -2.495816
v 1.197302 0.149872 -2.197302
v 1.495816 0.149872 -1.833562
v 1.717632 0.149872 -1.418574
v 1.854226 0.149872 -0.968285
v 1.890789 0.149872 -0.597050
v -2.890789 0.149872 -0.597052
v -2.854225 0.149872 -0.968287
v -2.717631 0.149872 -1.418576
v -2.495815 0.149872 -1.833564
v -2.197300 0.149872 -2.197304
v -1.833559 0.149872 -2.495818
v -1.418570 0.149872 -2.717633
v -0.968281 0.149872 -2.854227
v -1.111344 0.149872 -1.975916
v -0.811660 0.149872 -2.066824
v -1.387534 0.149872 -1.828289
v -1.629617 0.149872 -1.629617
v -1.828288 0.149872 -1.387536
v -1.975915 0.149872 -1.111347
v -2.066823 0.149872 -0.811663
v -2.087961 0.149872 -0.597052
v -0.188339 0.149872 -2.066824
v -0.500000 0.149872 -2.097520
v 0.111344 0.149872 -1.975916
v 0.387534 0.149872 -1.828289
v 0.629617 0.149872 -1.629617
v 0.828289 0.149872 -1.387534
v 0.975916 0.149872 -1.111345
v 1.066824 0.149872 -0.811661
v 1.000000 0.090000 -0.500000
v 1.087961 0.149872 -0.597050
v -0.012690 0.149872 -2.949872
v -0.500000 0.149872 -2.997868
v 0.455893 0.149872 -2.807729
v 0.887741 0.149872 -2.576901
v 1.266259 0.149872 -2.266259
v 1.576901 0.149872 -1.887741
v 1.807729 0.149872 -1.455893
v 1.949872 0.149872 -0.987310
v 1.997868 0.149872 -0.500000
v -2.949871 0.149872 -0.987312
v -2.997868 0.149872 -0.500002
v -2.807728 0.149872 -1.455895
v -2.576900 0.149872 -1.887743
v -2.266257 0.149872 -2.266261
v -1.887738 0.149872 -2.576903
v -1.455889 0.149872 -2.807730
v -0.987306 0.149872 -2.949872
v -0.792635 0.149872 -1.971178
v 1.000000 0.149872 -0.500000
v -2.000000 0.149872 -0.500002
v -1.074025 0.149872 -1.885819
v -1.333355 0.149872 -1.747204
v -1.560660 0.149872 -1.560660
v -1.747203 0.149872 -1.333357
v -1.885818 0.149872 -1.074027
v -1.971177 0.149872 -0.792637
v -0.500000 0.149872 -2.000000
v -0.207364 0.149872 -1.971178
v 0.074025 0.149872 -1.885819
v 0.333355 0.149872 -1.747204
v 0.560660 0.149872 -1.560660
v 0.747204 0.149872 -1.333355
v 0.885819 0.149872 -1.074025
v 0.971178 0.149872 -0.792636
vt 0.100000 0.183333
vt 0.900000 0.183333
vt 0.900000 0.316667
vt 0.100000 0.316667
vt 0.100000 0.183333
vt 0.900000 0.183333
vt 0.900000 0.316667
vt 0.100000 0.316667
vt 0.100000 0.183333
vt 0.900000 0.183333
vt 0.900000 0.316667
vt 0.100000 0.316667
vt 0.100000 0.183333
vt 0.900000 0.183333
vt 0.900000 0.316667
vt 0.100000 0.316667
vt 0.100000 0.183333
vt 0.900000 0.183333
vt 0.900000 0.316667
vt 0.100000 0.316667
vt 0.100000 0.183333
vt 0.900000 0.183333
vt 0.900000 0.316667
vt 0.100000 0.316667
vt 0.100000 0.183333
vt 0.900000 0.183333
vt 0.900000 0.316667
vt 0.100000 0.316667
vt 0.100000 0.183333
vt 0.900000 0.183333
vt 0.900000 0.316667
vt 0.100000 0.316667
vt 0.100000 0.183333
vt 0.900000 0.183333
vt 0.900000 0.316667
vt 0.100000 0.316667
vt 0.100000 0.183333
vt 0.900000 0.183333
vt 0.900000 0.316667
vt 0.100000 0.316667
vt 0.100000 0.183333
vt 0.900000 0.183333
vt 0.900000 0.316667
vt 0.100000 0.316667
vt 0.100000 0.183333
vt 0.900000 0.183333
vt 0.900000 0.316667
vt 0.100000 0.316667
vt 0.100000 0.183333
vt 0.900000 0.183333
vt 0.900000 0.316667
vt 0.100000 0.316667
vt 0.100000 0.183333
vt 0.900000 0.183333
vt 0.900000 0.316667
vt 0.100000 0.316667
vt 0.100000 0.183333
vt 0.900000 0.183333
vt 0.900000 0.316667
vt 0.100000 0.316667
vt 0.100000 0.183333
vt 0.900000 0.183333
vt 0.900000 0.316667
vt 0.100000 0.316667
vt 0.100000 0.183333
vt 0.900000 0.183333
vt 0.900000 0.316667
vt 0.100000 0.316667
vt 0.100000 0.183333
vt 0.900000 0.183333
vt 0.900000 0.316667
vt 0.100000 0.316667
vt 0.100000 0.183333
vt 0.900000 0.183333
vt 0.900000 0.316667
vt 0.100000 0.316667
vt 0.100000 0.183333
vt 0.900000 0.183333
vt 0.900000 0.316667
vt 0.100000 0.316667
vt 0.100000 0.183333
vt 0.900000 0.183333
vt 0.900000 0.316667
vt 0.100000 0.316667
vt 0.100000 0.183333
vt 0.900000 0.183333
vt 0.900000 0.316667
vt 0.100000 0.316667
vt 0.100000 0.183333
vt 0.900000 0.183333
vt 0.900000 0.316667
vt 0.100000 0.316667
vt 0.100000 0.183333
vt 0.900000 0.183333
vt 0.900000 0.316667
vt 0.100000 0.316667
vt 0.100000 0.183333
vt 0.900000 0.183333
vt 0.900000 0.316667
vt 0.100000 0.316667
vt 0.100000 0.183333
vt 0.900000 0.183333
vt 0.900000 0.316667
vt 0.100000 0.316667
vt 0.100000 0.850000
vt 0.900000 0.850000
vt 0.900000 0.983333
vt 0.100000 0.983333
vt 0.100000 0.850000
vt 0.900000 0.850000
vt 0.900000 0.983333
vt 0.100000 0.983333
vt 0.100000 0.850000
vt 0.900000 0.850000
vt 0.900000 0.983333
vt 0.100000 0.983333
vt 0.100000 0.850000
vt 0.900000 0.850000
vt 0.900000 0.983333
vt 0.100000 0.983333
vt 0.100000 0.850000
vt 0.900000 0.850000
vt 0.900000 0.983333
vt 0.100000 0.983333
vt 0.100000 0.850000
vt 0.900000 0.850000
vt 0.900000 0.983333
vt 0.100000 0.983333
vt 0.100000 0.683333
vt 0.900000 0.683333
vt 0.900000 0.816667
vt 0.100000 0.816667
vt 0.100000 0.683333
vt 0.900000 0.683333
vt 0.900000 0.816667
vt 0.100000 0.816667
vt 0.100000 0.683333
vt 0.900000 0.683333
vt 0.900000 0.816667
vt 0.100000 0.816667
vt 0.100000 0.683333
vt 0.900000 0.683333
vt 0.900000 0.816667
vt 0.100000 0.816667
vt 0.100000 0.683333
vt 0.900000 0.683333
vt 0.900000 0.816667
vt 0.100000 0.816667
vt 0.100000 0.683333
vt 0.900000 0.683333
vt 0.900000 0.816667
vt 0.100000 0.816667
vt 0.100000 0.683333
vt 0.900000 0.683333
vt 0.900000 0.816667
vt 0.100000 0.816667
vt 0.100000 0.683333
vt 0.900000 0.683333
vt 0.900000 0.816667
vt 0.100000 0.816667
vt 0.100000 0.683333
vt 0.900000 0.683333
vt 0.900000 0.816667
vt 0.100000 0.816667
vt 0.100000 0.683333
vt 0.900000 0.683333
vt 0.900000 0.816667
vt 0.100000 0.816667
vt 0.100000 0.516667
vt 0.900000 0.516667
vt 0.900000 0.650000
vt 0.100000 0.650000
vt 0.100000 0.516667
vt 0.900000 0.516667
vt 0.900000 0.650000
vt 0.100000 0.650000
vt 0.100000 0.516667
vt 0.900000 0.516667
vt 0.900000 0.650000
vt 0.100000 0.650000
vt 0.100000 0.516667
vt 0.900000 0.516667
vt 0.900000 0.650000
vt 0.100000 0.650000
vt 0.100000 0.516667
vt 0.900000 0.516667
vt 0.900000 0.650000
vt 0.100000 0.650000
vt 0.100000 0.516667
vt 0.900000 0.516667
vt 0.900000 0.650000
vt 0.100000 0.650000
vt 0.100000 0.516667
vt 0.900000 0.516667
vt 0.900000 0.650000
vt 0.100000 0.650000
vt 0.100000 0.516667
vt 0.900000 0.516667
vt 0.900000 0.650000
vt 0.100000 0.650000
vt 0.100000 0.516667
vt 0.900000 0.516667
vt 0.900000 0.650000
vt 0.100000 0.650000
vt 0.100000 0.516667
vt 0.900000 0.516667
vt 0.900000 0.650000
vt 0.100000 0.650000
vt 0.100000 0.516667
vt 0.900000 0.516667
vt 0.900000 0.650000
vt 0.100000 0.650000
vt 0.100000 0.516667
vt 0.900000 0.516667
vt 0.900000 0.650000
vt 0.100000 0.650000
vt 0.100000 0.516667
vt 0.900000 0.516667
vt 0.900000 0.650000
vt 0.100000 0.650000
vt 0.100000 0.516667
vt 0.900000 0.516667
vt 0.900000 0.650000
vt 0.100000 0.650000
vt 0.100000 0.516667
vt 0.900000 0.516667
vt 0.900000 0.650000
vt 0.100000 0.650000
vt 0.100000 0.516667
vt 0.900000 0.516667
vt 0.900000 0.650000
vt 0.100000 0.650000
vt 0.100000 0.516667
vt 0.900000 0.516667
vt 0.900000 0.650000
vt 0.100000 0.650000
vt 0.100000 0.516667
vt 0.900000 0.516667
vt 0.900000 0.650000
vt 0.100000 0.650000
vt 0.100000 0.350000
vt 0.900000 0.350000
vt 0.900000 0.483333
vt 0.100000 0.483333
vt 0.100000 0.350000
vt 0.900000 0.350000
vt 0.900000 0.483333
vt 0.100000 0.483333
vt 0.100000 0.350000
vt 0.900000 0.350000
vt 0.900000 0.483333
vt 0.100000 0.483333
vt 0.100000 0.350000
vt 0.900000 0.350000
vt 0.900000 0.483333
vt 0.100000 0.483333
vt 0.100000 0.350000
vt 0.900000 0.350000
vt 0.900000 0.483333
vt 0.100000 0.483333
vt 0.100000 0.350000
vt 0.900000 0.350000
vt 0.900000 0.483333
vt 0.100000 0.483333
vt 0.100000 0.350000
vt 0.900000 0.350000
vt 0.900000 0.483333
vt 0.100000 0.483333
vt 0.100000 0.350000
vt 0.900000 0.350000
vt 0.900000 0.483333
vt 0.100000 0.483333
vt 0.100000 0.350000
vt 0.900000 0.350000
vt 0.900000 0.483333
vt 0.100000 0.483333
vt 0.100000 0.350000
vt 0.900000 0.350000
vt 0.900000 0.483333
vt 0.100000 0.483333
vt 0.100000 0.350000
vt 0.900000 0.350000
vt 0.900000 0.483333
vt 0.100000 0.483333
vt 0.100000 0.350000
vt 0.900000 0.350000
vt 0.900000 0.483333
vt 0.100000 0.483333
vt 0.100000 0.350000
vt 0.900000 0.350000
vt 0.900000 0.483333
vt 0.100000 0.483333
vt 0.100000 0.350000
vt 0.900000 0.350000
vt 0.900000 0.483333
vt 0.100000 0.483333
vt 0.100000 0.350000
vt 0.900000 0.350000
vt 0.900000 0.483333
vt 0.100000 0.483333
vt 0.100000 0.350000
vt 0.900000 0.350000
vt 0.900000 0.483333
vt 0.100000 0.483333
vt 0.100000 0.350000
vt 0.900000 0.350000
vt 0.900000 0.483333
vt 0.100000 0.483333
vt 0.100000 0.350000
vt 0.900000 0.350000
vt 0.900000 0.483333
vt 0.100000 0.483333
vt 0.100000 0.350000
vt 0.900000 0.350000
vt 0.900000 0.483333
vt 0.100000 0.483333
vt 0.100000 0.350000
vt 0.900000 0.350000
vt 0.900000 0.483333
vt 0.100000 0.483333
vt 0.100000 0.350000
vt 0.900000 0.350000
vt 0.900000 0.483333
vt 0.100000 0.483333
vt 0.100000 0.350000
vt 0.900000 0.350000
vt 0.900000 0.483333
vt 0.100000 0.483333
vt 0.100000 0.350000
vt 0.900000 0.350000
vt 0.900000 0.483333
vt 0.100000 0.483333
vt 0.100000 0.350000
vt 0.900000 0.350000
vt 0.900000 0.483333
vt 0.100000 0.483333
vt 0.100000 0.350000
vt 0.900000 0.350000
vt 0.900000 0.483333
vt 0.100000 0.483333
vt 0.100000 0.350000
vt 0.900000 0.350000
vt 0.900000 0.483333
vt 0.100000 0.483333
vt 0.100000 0.350000
vt 0.900000 0.350000
vt 0.900000 0.483333
vt 0.100000 0.483333
vt 0.100000 0.350000
vt 0.900000 0.350000
vt 0.900000 0.483333
vt 0.100000 0.483333
vt 0.100000 0.350000
vt 0.900000 0.350000
vt 0.900000 0.483333
vt 0.100000 0.483333
vt 0.100000 0.350000
vt 0.900000 0.350000
vt 0.900000 0.483333
vt 0.100000 0.483333
vt 0.100000 0.350000
vt 0.900000 0.350000
vt 0.900000 0.483333
vt 0.100000 0.483333
vt 0.100000 0.350000
vt 0.900000 0.350000
vt 0.900000 0.483333
vt 0.100000 0.483333
vt 0.100000 0.350000
vt 0.900000 0.350000
vt 0.900000 0.483333
vt 0.100000 0.483333
vt 0.100000 0.350000
vt 0.900000 0.350000
vt 0.900000 0.483333
vt 0.100000 0.483333
vn 0.0000 1.0000 -0.0000
usemtl None_wheel.png
s off
f 67/1/35 66/2/35 91/3/35 92/4/35
f 66/5/35 68/6/35 93/7/35 91/8/35
f 68/9/35 69/10/35 94/11/35 93/12/35
f 69/13/35 70/14/35 95/15/35 94/16/35
f 70/17/35 71/18/35 96/19/35 95/20/35
f 71/21/35 72/22/35 97/23/35 96/24/35
f 72/25/35 73/26/35 98/27/35 97/28/35
f 73/29/35 74/30/35 99/31/35 98/32/35
f 74/33/35 75/34/35 100/35/35 99/36/35
f 75/37/35 76/38/35 101/39/35 100/40/35
f 76/41/35 77/42/35 102/43/35 101/44/35
f 77/45/35 78/46/35 103/47/35 102/48/35
f 78/49/35 79/50/35 104/51/35 103/52/35
f 79/53/35 80/54/35 105/55/35 104/56/35
f 80/57/35 81/58/35 106/59/35 105/60/35
f 81/61/35 82/62/35 107/63/35 106/64/35
f 83/65/35 84/66/35 108/67/35 109/68/35
f 84/69/35 85/70/35 110/71/35 108/72/35
f 85/73/35 86/74/35 111/75/35 110/76/35
f 86/77/35 87/78/35 112/79/35 111/80/35
f 87/81/35 88/82/35 113/83/35 112/84/35
f 88/85/35 89/86/35 114/87/35 113/88/35
f 89/89/35 90/90/35 115/91/35 114/92/35
f 90/93/35 67/94/35 92/95/35 115/96/35
f 82/97/35 65/98/35 116/99/35 107/100/35
f 65/101/35 83/102/35 109/103/35 116/104/35
f 120/105/35 119/106/35 123/107/35 124/108/35
f 119/109/35 121/110/35 125/111/35 123/112/35
f 121/113/35 122/114/35 126/115/35 125/116/35
f 122/117/35 118/118/35 127/119/35 126/120/35
f 117/121/35 120/122/35 124/123/35 128/124/35
f 118/125/35 117/126/35 128/127/35 127/128/35
f 130/129/35 129/130/35 139/131/35 140/132/35
f 131/133/35 130/134/35 140/135/35 141/136/35
f 132/137/35 131/138/35 141/139/35 142/140/35
f 133/141/35 132/142/35 142/143/35 143/144/35
f 134/145/35 135/146/35 145/147/35 144/148/35
f 135/149/35 133/150/35 143/151/35 145/152/35
f 137/153/35 134/154/35 144/155/35 146/156/35
f 138/157/35 137/158/35 146/159/35 147/160/35
f 136/161/35 138/162/35 147/163/35 148/164/35
f 129/165/35 136/166/35 148/167/35 139/168/35
f 149/169/35 150/170/35 167/171/35 168/172/35
f 150/173/35 151/174/35 169/175/35 167/176/35
f 151/177/35 152/178/35 170/179/35 169/180/35
f 152/181/35 153/182/35 171/183/35 170/184/35
f 153/185/35 154/186/35 172/187/35 171/188/35
f 154/189/35 155/190/35 173/191/35 172/192/35
f 155/193/35 156/194/35 174/195/35 173/196/35
f 156/197/35 157/198/35 175/199/35 174/200/35
f 158/201/35 149/202/35 168/203/35 176/204/35
f 157/205/35 166/206/35 177/207/35 175/208/35
f 159/209/35 158/210/35 176/211/35 178/212/35
f 160/213/35 159/214/35 178/215/35 179/216/35
f 161/217/35 160/218/35 179/219/35 180/220/35
f 162/221/35 161/222/35 180/223/35 181/224/35
f 163/225/35 162/226/35 181/227/35 182/228/35
f 165/229/35 164/230/35 184/231/35 183/232/35
f 164/233/35 163/234/35 182/235/35 184/236/35
f 166/237/35 165/238/35 183/239/35 177/240/35
f 186/241/35 185/242/35 220/243/35 221/244/35
f 185/245/35 187/246/35 222/247/35 220/248/35
f 187/249/35 188/250/35 223/251/35 222/252/35
f 188/253/35 189/254/35 224/255/35 223/256/35
f 189/257/35 190/258/35 225/259/35 224/260/35
f 190/261/35 191/262/35 226/263/35 225/264/35
f 191/265/35 192/266/35 227/267/35 226/268/35
f 192/269/35 193/270/35 228/271/35 227/272/35
f 194/273/35 195/274/35 229/275/35 230/276/35
f 195/277/35 196/278/35 231/279/35 229/280/35
f 196/281/35 197/282/35 232/283/35 231/284/35
f 197/285/35 198/286/35 233/287/35 232/288/35
f 198/289/35 199/290/35 234/291/35 233/292/35
f 199/293/35 200/294/35 235/295/35 234/296/35
f 200/297/35 201/298/35 236/299/35 235/300/35
f 201/301/35 186/302/35 221/303/35 236/304/35
f 193/305/35 219/306/35 238/307/35 228/308/35
f 209/309/35 194/310/35 230/311/35 239/312/35
f 203/313/35 202/314/35 240/315/35 237/316/35
f 202/317/35 204/318/35 241/319/35 240/320/35
f 204/321/35 205/322/35 242/323/35 241/324/35
f 205/325/35 206/326/35 243/327/35 242/328/35
f 206/329/35 207/330/35 244/331/35 243/332/35
f 207/333/35 208/334/35 245/335/35 244/336/35
f 208/337/35 209/338/35 239/339/35 245/340/35
f 211/341/35 203/342/35 237/343/35 246/344/35
f 210/345/35 211/346/35 246/347/35 247/348/35
f 212/349/35 210/350/35 247/351/35 248/352/35
f 213/353/35 212/354/35 248/355/35 249/356/35
f 214/357/35 213/358/35 249/359/35 250/360/35
f 215/361/35 214/362/35 250/363/35 251/364/35
f 216/365/35 215/366/35 251/367/35 252/368/35
f 217/369/35 216/370/35 252/371/35 253/372/35
f 219/373/35 217/374/35 253/375/35 238/376/35
l 218 238
