# Blender v2.79 (sub 0) OBJ File: 'circles2.blend'
# www.blender.org
mtllib 2vector.mtl
o Circle.001_Circle.002
v 0.000000 0.030000 0.733649
v -0.010025 0.030000 0.734637
v -0.019665 0.030000 0.737561
v -0.028549 0.030000 0.742309
v -0.036336 0.030000 0.748700
v -0.042727 0.030000 0.756487
v -0.047476 0.030000 0.765371
v -0.050400 0.030000 0.775011
v -0.051387 0.030000 0.785037
v -0.050400 0.030000 0.795062
v -0.047476 0.030000 0.804702
v -0.042727 0.030000 0.813586
v -0.036336 0.030000 0.821373
v -0.028549 0.030000 0.827764
v -0.019665 0.030000 0.832512
v -0.010025 0.030000 0.835437
v 0.000000 0.030000 0.836424
v 0.010025 0.030000 0.835437
v 0.019665 0.030000 0.832512
v 0.028549 0.030000 0.827764
v 0.036336 0.030000 0.821373
v 0.042727 0.030000 0.813586
v 0.047476 0.030000 0.804702
v 0.050400 0.030000 0.795062
v 0.051387 0.030000 0.785037
v 0.050400 0.030000 0.775011
v 0.047476 0.030000 0.765371
v 0.042727 0.030000 0.756487
v 0.036336 0.030000 0.748700
v 0.028549 0.030000 0.742309
v 0.019665 0.030000 0.737561
v 0.010025 0.030000 0.734637
v 0.000000 0.030000 -1.938112
v -0.378107 0.030000 -1.900872
v -0.741683 0.030000 -1.790582
v -1.076757 0.030000 -1.611481
v -1.370452 0.030000 -1.370452
v -1.611481 0.030000 -1.076757
v -1.790582 0.030000 -0.741683
v -1.900872 0.030000 -0.378107
v -1.938112 0.030000 -0.000000
v -1.900872 0.030000 0.378107
v -1.790582 0.030000 0.741683
v -1.611481 0.030000 1.076757
v -1.370452 0.030000 1.370452
v -1.076757 0.030000 1.611481
v -0.741683 0.030000 1.790582
v -0.378106 0.030000 1.900872
v 0.000001 0.030000 1.938112
v 0.378108 0.030000 1.900871
v 0.741684 0.030000 1.790581
v 1.076758 0.030000 1.611480
v 1.370453 0.030000 1.370451
v 1.611482 0.030000 1.076756
v 1.790583 0.030000 0.741682
v 1.900872 0.030000 0.378105
v 1.938112 0.030000 -0.000002
v 1.900871 0.030000 -0.378109
v 1.790581 0.030000 -0.741685
v 1.611480 0.030000 -1.076759
v 1.370450 0.030000 -1.370454
v 1.076755 0.030000 -1.611483
v 0.741681 0.030000 -1.790583
v 0.378104 0.030000 -1.900872
v -0.368988 0.030000 -1.855029
v 0.000000 0.030000 -1.891371
v -0.723797 0.030000 -1.747399
v -1.050790 0.030000 -1.572618
v -1.337402 0.030000 -1.337401
v -1.572618 0.030000 -1.050789
v -1.747399 0.030000 -0.723796
v -1.855029 0.030000 -0.368988
v -1.891371 0.030000 -0.000000
v -1.855029 0.030000 0.368988
v -1.747399 0.030000 0.723796
v -1.572618 0.030000 1.050790
v -1.337402 0.030000 1.337402
v -1.050790 0.030000 1.572618
v -0.723796 0.030000 1.747400
v -0.368988 0.030000 1.855029
v 0.000001 0.030000 1.891371
v 0.368989 0.030000 1.855029
v 0.723797 0.030000 1.747399
v 1.050791 0.030000 1.572617
v 1.337402 0.030000 1.337401
v 1.572619 0.030000 1.050789
v 1.747400 0.030000 0.723795
v 1.855029 0.030000 0.368987
v 1.891371 0.030000 -0.000002
v 1.855029 0.030000 -0.368990
v 1.747398 0.030000 -0.723798
v 1.572616 0.030000 -1.050792
v 1.337400 0.030000 -1.337403
v 1.050788 0.030000 -1.572619
v 0.723794 0.030000 -1.747401
v 0.368985 0.030000 -1.855030
v 0.000000 0.030000 -0.051387
v -0.010025 0.030000 -0.050400
v -0.019665 0.030000 -0.047476
v -0.028549 0.030000 -0.042727
v -0.036336 0.030000 -0.036336
v -0.042727 0.030000 -0.028549
v -0.047476 0.030000 -0.019665
v -0.050400 0.030000 -0.010025
v -0.051387 0.030000 -0.000000
v -0.050400 0.030000 0.010025
v -0.047476 0.030000 0.019665
v -0.042727 0.030000 0.028549
v -0.036336 0.030000 0.036336
v -0.028549 0.030000 0.042727
v -0.019665 0.030000 0.047476
v -0.010025 0.030000 0.050400
v 0.000000 0.030000 0.051387
v 0.010025 0.030000 0.050400
v 0.019665 0.030000 0.047476
v 0.028549 0.030000 0.042727
v 0.036336 0.030000 0.036336
v 0.042727 0.030000 0.028549
v 0.047476 0.030000 0.019665
v 0.050400 0.030000 0.010025
v 0.051387 0.030000 -0.000000
v 0.050400 0.030000 -0.010025
v 0.047476 0.030000 -0.019665
v 0.042727 0.030000 -0.028549
v 0.036336 0.030000 -0.036336
v 0.028549 0.030000 -0.042727
v 0.019665 0.030000 -0.047476
v 0.010025 0.030000 -0.050400
v -0.150942 0.033882 -0.007445
v 0.150941 0.033881 -0.007444
v -0.150941 0.033882 -1.931590
v 0.150942 0.033882 -1.931590
v -0.131023 0.033882 -1.908334
v -0.131024 0.033882 -0.030701
v 0.131023 0.033881 -0.030701
v 0.131024 0.033882 -1.908334
v -0.890674 0.033000 -1.657691
v -0.936398 0.033000 -1.636887
v 0.000047 0.033000 -0.114920
v -0.028910 0.033000 -0.065074
v 0.834516 0.033000 -1.692236
v 0.488342 0.033000 -1.822526
v 0.123401 0.033000 -1.882777
v -0.246282 0.033000 -1.870674
v -0.606501 0.033000 -1.786682
v 0.857203 0.033000 -1.738241
v 0.501618 0.033000 -1.872073
v 0.126756 0.033000 -1.933963
v -0.252977 0.033000 -1.921530
v -0.622989 0.033000 -1.835255
v -0.962192 0.033000 -1.681564
v -0.936544 0.033000 -1.637141
v 0.958048 0.033000 -1.675531
v 0.932546 0.033000 -1.631277
v 0.890498 0.033000 -1.657424
v 0.000008 0.033000 -0.014990
v 1.850562 0.031000 -0.368100
v 1.743191 0.031000 -0.722054
v 1.568831 0.031000 -1.048259
v 1.334181 0.031000 -1.334181
v 1.048259 0.031000 -1.568831
v 0.722054 0.031000 -1.743191
v 0.368100 0.031000 -1.850562
v 0.000000 0.031000 -1.886817
v -0.368099 0.031000 -1.850562
v -0.722053 0.031000 -1.743191
v -1.048259 0.031000 -1.568831
v -1.334181 0.031000 -1.334181
v -1.568831 0.031000 -1.048259
v -1.743192 0.031000 -0.722053
v -1.850562 0.031000 -0.368099
v 1.900872 0.031000 -0.378107
v 1.790582 0.031000 -0.741683
v 1.611481 0.031000 -1.076757
v 1.370452 0.031000 -1.370452
v 1.076757 0.031000 -1.611481
v 0.741683 0.031000 -1.790582
v 0.378107 0.031000 -1.900872
v 0.000000 0.031000 -1.938112
v -0.378107 0.031000 -1.900872
v -0.741683 0.031000 -1.790582
v -1.076757 0.031000 -1.611481
v -1.370452 0.031000 -1.370452
v -1.611481 0.031000 -1.076757
v -1.790582 0.031000 -0.741683
v -1.900872 0.031000 -0.378106
v 1.913285 0.031000 -0.252071
v 1.925698 0.031000 -0.126035
v 1.862647 0.031000 -0.245400
v 1.874732 0.031000 -0.122700
v 1.937373 0.031000 -0.007500
v -1.937373 0.031000 -0.007500
v 1.886100 0.031000 -0.007501
v 1.881169 0.031000 -0.057500
v -1.886047 0.031000 -0.007499
v -1.881172 0.031000 -0.057500
v 1.629569 0.032000 -0.949493
v 1.600109 0.032000 -0.990625
v 0.049975 0.032000 -0.037512
v -0.000014 0.032000 -0.066386
v 1.418584 0.032000 -1.244065
v 1.148621 0.032000 -1.496913
v 0.834518 0.032000 -1.692235
v 0.488344 0.032000 -1.822525
v 0.123403 0.032000 -1.882777
v -0.246280 0.032000 -1.870675
v -0.606498 0.032000 -1.786684
v -0.943409 0.032000 -1.634031
v -1.244066 0.032000 -1.418583
v -1.496913 0.032000 -1.148620
v 1.457150 0.032000 -1.277886
v 1.179848 0.032000 -1.537608
v 0.857205 0.032000 -1.738240
v 0.501620 0.032000 -1.872072
v 0.126758 0.032000 -1.933962
v -0.252975 0.032000 -1.921531
v -0.622986 0.032000 -1.835256
v -0.969057 0.032000 -1.678454
v -1.277887 0.032000 -1.457149
v -1.537608 0.032000 -1.179847
v 1.674065 0.032000 -0.975181
v -1.666654 0.032000 -0.972324
v -1.596601 0.032000 -0.988310
v -1.622670 0.032000 -0.946386
v 0.000026 0.032000 -0.008674
vt 0.800000 0.133333
vt 0.500000 0.150000
vt 0.500000 0.016667
vt 0.500000 0.150000
vt 0.400000 0.150000
vt 0.300000 0.150000
vt 0.200000 0.133333
vt 0.200000 0.133333
vt 0.100000 0.116667
vt 0.100000 0.100000
vt 0.100000 0.083333
vt 0.100000 0.083333
vt 0.200000 0.033333
vt 0.100000 0.066667
vt 0.100000 0.050000
vt 0.200000 0.033333
vt 0.300000 0.016667
vt 0.400000 0.016667
vt 0.500000 0.016667
vt 0.600000 0.016667
vt 0.700000 0.016667
vt 0.800000 0.033333
vt 0.800000 0.033333
vt 0.900000 0.083333
vt 0.900000 0.050000
vt 0.900000 0.066667
vt 0.900000 0.083333
vt 0.900000 0.100000
vt 0.900000 0.116667
vt 0.800000 0.133333
vt 0.700000 0.150000
vt 0.600000 0.150000
vt 0.100000 0.350000
vt 0.900000 0.350000
vt 0.900000 0.483333
vt 0.100000 0.483333
vt 0.100000 0.350000
vt 0.900000 0.350000
vt 0.900000 0.483333
vt 0.100000 0.483333
vt 0.100000 0.350000
vt 0.900000 0.350000
vt 0.900000 0.483333
vt 0.100000 0.483333
vt 0.100000 0.350000
vt 0.900000 0.350000
vt 0.900000 0.483333
vt 0.100000 0.483333
vt 0.100000 0.350000
vt 0.900000 0.350000
vt 0.900000 0.483333
vt 0.100000 0.483333
vt 0.100000 0.350000
vt 0.900000 0.350000
vt 0.900000 0.483333
vt 0.100000 0.483333
vt 0.100000 0.350000
vt 0.900000 0.350000
vt 0.900000 0.483333
vt 0.100000 0.483333
vt 0.100000 0.350000
vt 0.900000 0.350000
vt 0.900000 0.483333
vt 0.100000 0.483333
vt 0.100000 0.350000
vt 0.900000 0.350000
vt 0.900000 0.483333
vt 0.100000 0.483333
vt 0.100000 0.350000
vt 0.900000 0.350000
vt 0.900000 0.483333
vt 0.100000 0.483333
vt 0.100000 0.350000
vt 0.900000 0.350000
vt 0.900000 0.483333
vt 0.100000 0.483333
vt 0.100000 0.350000
vt 0.900000 0.350000
vt 0.900000 0.483333
vt 0.100000 0.483333
vt 0.100000 0.350000
vt 0.900000 0.350000
vt 0.900000 0.483333
vt 0.100000 0.483333
vt 0.100000 0.350000
vt 0.900000 0.350000
vt 0.900000 0.483333
vt 0.100000 0.483333
vt 0.100000 0.350000
vt 0.900000 0.350000
vt 0.900000 0.483333
vt 0.100000 0.483333
vt 0.100000 0.350000
vt 0.900000 0.350000
vt 0.900000 0.483333
vt 0.100000 0.483333
vt 0.100000 0.350000
vt 0.900000 0.350000
vt 0.900000 0.483333
vt 0.100000 0.483333
vt 0.100000 0.350000
vt 0.900000 0.350000
vt 0.900000 0.483333
vt 0.100000 0.483333
vt 0.100000 0.350000
vt 0.900000 0.350000
vt 0.900000 0.483333
vt 0.100000 0.483333
vt 0.100000 0.350000
vt 0.900000 0.350000
vt 0.900000 0.483333
vt 0.100000 0.483333
vt 0.100000 0.350000
vt 0.900000 0.350000
vt 0.900000 0.483333
vt 0.100000 0.483333
vt 0.100000 0.350000
vt 0.900000 0.350000
vt 0.900000 0.483333
vt 0.100000 0.483333
vt 0.100000 0.350000
vt 0.900000 0.350000
vt 0.900000 0.483333
vt 0.100000 0.483333
vt 0.100000 0.350000
vt 0.900000 0.350000
vt 0.900000 0.483333
vt 0.100000 0.483333
vt 0.100000 0.350000
vt 0.900000 0.350000
vt 0.900000 0.483333
vt 0.100000 0.483333
vt 0.100000 0.350000
vt 0.900000 0.350000
vt 0.900000 0.483333
vt 0.100000 0.483333
vt 0.100000 0.350000
vt 0.900000 0.350000
vt 0.900000 0.483333
vt 0.100000 0.483333
vt 0.100000 0.350000
vt 0.900000 0.350000
vt 0.900000 0.483333
vt 0.100000 0.483333
vt 0.100000 0.350000
vt 0.900000 0.350000
vt 0.900000 0.483333
vt 0.100000 0.483333
vt 0.100000 0.350000
vt 0.900000 0.350000
vt 0.900000 0.483333
vt 0.100000 0.483333
vt 0.100000 0.350000
vt 0.900000 0.350000
vt 0.900000 0.483333
vt 0.100000 0.483333
vt 0.100000 0.350000
vt 0.900000 0.350000
vt 0.900000 0.483333
vt 0.100000 0.483333
vt 0.500000 0.483333
vt 0.100000 0.416667
vt 0.500000 0.350000
vt 0.500000 0.483333
vt 0.300000 0.466667
vt 0.400000 0.483333
vt 0.400000 0.466667
vt 0.200000 0.450000
vt 0.200000 0.433333
vt 0.100000 0.433333
vt 0.100000 0.400000
vt 0.100000 0.400000
vt 0.200000 0.400000
vt 0.200000 0.383333
vt 0.300000 0.366667
vt 0.400000 0.350000
vt 0.400000 0.350000
vt 0.500000 0.350000
vt 0.600000 0.350000
vt 0.600000 0.350000
vt 0.700000 0.366667
vt 0.800000 0.383333
vt 0.800000 0.400000
vt 0.900000 0.400000
vt 0.900000 0.400000
vt 0.900000 0.416667
vt 0.900000 0.433333
vt 0.800000 0.433333
vt 0.800000 0.450000
vt 0.700000 0.466667
vt 0.600000 0.466667
vt 0.600000 0.483333
vt 0.100000 0.183333
vt 0.900000 0.183333
vt 0.900000 0.316667
vt 0.100000 0.316667
vt 0.100000 0.183333
vt 0.900000 0.183333
vt 0.900000 0.316667
vt 0.100000 0.316667
vt 0.100000 0.183333
vt 0.900000 0.183333
vt 0.900000 0.316667
vt 0.100000 0.316667
vt 0.100000 0.183333
vt 0.900000 0.183333
vt 0.900000 0.316667
vt 0.100000 0.316667
vt 0.100000 0.850000
vt 0.900000 0.850000
vt 0.900000 0.983333
vt 0.100000 0.983333
vt 0.900000 0.983333
vt 0.900000 0.850000
vt 0.100000 0.850000
vt 0.100000 0.983333
vt 0.900000 0.850000
vt 0.100000 0.850000
vt 0.900000 0.983333
vt 0.100000 0.983333
vt 0.900000 0.850000
vt 0.100000 0.850000
vt 0.100000 0.850000
vt 0.900000 0.850000
vt 0.900000 0.983333
vt 0.100000 0.983333
vt 0.100000 0.983333
vt 0.100000 0.850000
vt 0.900000 0.850000
vt 0.900000 0.983333
vt 0.100000 0.516667
vt 0.900000 0.516667
vt 0.900000 0.650000
vt 0.100000 0.650000
vt 0.100000 0.516667
vt 0.900000 0.516667
vt 0.900000 0.650000
vt 0.100000 0.650000
vt 0.100000 0.516667
vt 0.900000 0.516667
vt 0.900000 0.650000
vt 0.100000 0.650000
vt 0.100000 0.516667
vt 0.900000 0.516667
vt 0.900000 0.650000
vt 0.100000 0.650000
vt 0.100000 0.516667
vt 0.900000 0.516667
vt 0.900000 0.650000
vt 0.100000 0.650000
vt 0.100000 0.516667
vt 0.900000 0.516667
vt 0.900000 0.650000
vt 0.100000 0.650000
vt 0.100000 0.516667
vt 0.900000 0.516667
vt 0.900000 0.650000
vt 0.100000 0.650000
vt 0.100000 0.516667
vt 0.900000 0.516667
vt 0.900000 0.650000
vt 0.100000 0.650000
vt 0.100000 0.516667
vt 0.900000 0.516667
vt 0.900000 0.650000
vt 0.100000 0.650000
vt 0.100000 0.516667
vt 0.900000 0.516667
vt 0.900000 0.650000
vt 0.100000 0.650000
vt 0.100000 0.516667
vt 0.900000 0.516667
vt 0.900000 0.650000
vt 0.100000 0.650000
vt 0.100000 0.516667
vt 0.900000 0.516667
vt 0.900000 0.650000
vt 0.100000 0.650000
vt 0.100000 0.516667
vt 0.900000 0.516667
vt 0.900000 0.650000
vt 0.100000 0.650000
vt 0.100000 0.516667
vt 0.900000 0.516667
vt 0.900000 0.650000
vt 0.100000 0.650000
vt 0.100000 0.516667
vt 0.900000 0.516667
vt 0.900000 0.650000
vt 0.100000 0.650000
vt 0.100000 0.516667
vt 0.900000 0.516667
vt 0.900000 0.650000
vt 0.100000 0.650000
vt 0.100000 0.516667
vt 0.900000 0.516667
vt 0.900000 0.650000
vt 0.100000 0.650000
vt 0.100000 0.516667
vt 0.900000 0.516667
vt 0.900000 0.650000
vt 0.100000 0.516667
vt 0.900000 0.516667
vt 0.900000 0.650000
vt 0.100000 0.650000
vt 0.100000 0.683333
vt 0.900000 0.683333
vt 0.900000 0.816667
vt 0.100000 0.816667
vt 0.100000 0.683333
vt 0.900000 0.683333
vt 0.900000 0.816667
vt 0.100000 0.816667
vt 0.100000 0.683333
vt 0.900000 0.683333
vt 0.900000 0.816667
vt 0.100000 0.816667
vt 0.100000 0.683333
vt 0.900000 0.683333
vt 0.900000 0.816667
vt 0.100000 0.816667
vt 0.100000 0.683333
vt 0.900000 0.683333
vt 0.900000 0.816667
vt 0.100000 0.816667
vt 0.100000 0.683333
vt 0.900000 0.683333
vt 0.900000 0.816667
vt 0.100000 0.816667
vt 0.100000 0.683333
vt 0.900000 0.683333
vt 0.900000 0.816667
vt 0.100000 0.816667
vt 0.100000 0.683333
vt 0.900000 0.683333
vt 0.900000 0.816667
vt 0.100000 0.816667
vt 0.100000 0.683333
vt 0.900000 0.683333
vt 0.900000 0.816667
vt 0.100000 0.816667
vt 0.100000 0.683333
vt 0.900000 0.683333
vt 0.900000 0.816667
vt 0.100000 0.816667
vt 0.100000 0.683333
vt 0.900000 0.683333
vt 0.900000 0.816667
vt 0.100000 0.816667
vt 0.100000 0.683333
vt 0.900000 0.683333
vt 0.900000 0.816667
vt 0.100000 0.816667
vt 0.100000 0.683333
vt 0.900000 0.683333
vt 0.900000 0.816667
vn 0.0000 1.0000 -0.0000
usemtl Material
s off
f 29/1/1 1/2/1 17/3/1
f 1/2/1 2/4/1 3/5/1
f 3/5/1 4/6/1 1/2/1
f 4/6/1 5/7/1 1/2/1
f 5/7/1 6/8/1 7/9/1
f 7/9/1 8/10/1 5/7/1
f 8/10/1 9/11/1 5/7/1
f 9/11/1 10/12/1 13/13/1
f 10/12/1 11/14/1 13/13/1
f 11/14/1 12/15/1 13/13/1
f 13/13/1 14/16/1 15/17/1
f 15/17/1 16/18/1 13/13/1
f 16/18/1 17/3/1 13/13/1
f 17/3/1 18/19/1 19/20/1
f 19/20/1 20/21/1 21/22/1
f 21/22/1 22/23/1 25/24/1
f 22/23/1 23/25/1 25/24/1
f 23/25/1 24/26/1 25/24/1
f 25/24/1 26/27/1 29/1/1
f 26/27/1 27/28/1 29/1/1
f 27/28/1 28/29/1 29/1/1
f 29/1/1 30/30/1 31/31/1
f 31/31/1 32/32/1 29/1/1
f 32/32/1 1/2/1 29/1/1
f 17/3/1 19/20/1 25/24/1
f 19/20/1 21/22/1 25/24/1
f 1/2/1 5/7/1 17/3/1
f 5/7/1 9/11/1 17/3/1
f 9/11/1 13/13/1 17/3/1
f 25/24/1 29/1/1 17/3/1
f 65/33/1 66/34/1 33/35/1 34/36/1
f 67/37/1 65/38/1 34/39/1 35/40/1
f 68/41/1 67/42/1 35/43/1 36/44/1
f 69/45/1 68/46/1 36/47/1 37/48/1
f 70/49/1 69/50/1 37/51/1 38/52/1
f 71/53/1 70/54/1 38/55/1 39/56/1
f 72/57/1 71/58/1 39/59/1 40/60/1
f 73/61/1 72/62/1 40/63/1 41/64/1
f 74/65/1 73/66/1 41/67/1 42/68/1
f 75/69/1 74/70/1 42/71/1 43/72/1
f 76/73/1 75/74/1 43/75/1 44/76/1
f 77/77/1 76/78/1 44/79/1 45/80/1
f 78/81/1 77/82/1 45/83/1 46/84/1
f 79/85/1 78/86/1 46/87/1 47/88/1
f 80/89/1 79/90/1 47/91/1 48/92/1
f 81/93/1 80/94/1 48/95/1 49/96/1
f 82/97/1 81/98/1 49/99/1 50/100/1
f 83/101/1 82/102/1 50/103/1 51/104/1
f 84/105/1 83/106/1 51/107/1 52/108/1
f 85/109/1 84/110/1 52/111/1 53/112/1
f 86/113/1 85/114/1 53/115/1 54/116/1
f 87/117/1 86/118/1 54/119/1 55/120/1
f 88/121/1 87/122/1 55/123/1 56/124/1
f 89/125/1 88/126/1 56/127/1 57/128/1
f 90/129/1 89/130/1 57/131/1 58/132/1
f 91/133/1 90/134/1 58/135/1 59/136/1
f 92/137/1 91/138/1 59/139/1 60/140/1
f 93/141/1 92/142/1 60/143/1 61/144/1
f 94/145/1 93/146/1 61/147/1 62/148/1
f 95/149/1 94/150/1 62/151/1 63/152/1
f 96/153/1 95/154/1 63/155/1 64/156/1
f 66/157/1 96/158/1 64/159/1 33/160/1
f 97/161/1 105/162/1 113/163/1
f 97/161/1 98/164/1 101/165/1
f 98/164/1 99/166/1 101/165/1
f 99/166/1 100/167/1 101/165/1
f 101/165/1 102/168/1 103/169/1
f 103/169/1 104/170/1 101/165/1
f 104/170/1 105/162/1 101/165/1
f 105/162/1 106/171/1 107/172/1
f 107/172/1 108/173/1 109/174/1
f 109/174/1 110/175/1 111/176/1
f 111/176/1 112/177/1 109/174/1
f 112/177/1 113/163/1 109/174/1
f 113/163/1 114/178/1 115/179/1
f 115/179/1 116/180/1 117/181/1
f 117/181/1 118/182/1 119/183/1
f 119/183/1 120/184/1 117/181/1
f 120/184/1 121/185/1 117/181/1
f 121/185/1 122/186/1 123/187/1
f 123/187/1 124/188/1 125/189/1
f 125/189/1 126/190/1 127/191/1
f 127/191/1 128/192/1 125/189/1
f 128/192/1 97/161/1 125/189/1
f 105/162/1 107/172/1 113/163/1
f 107/172/1 109/174/1 113/163/1
f 113/163/1 115/179/1 121/185/1
f 115/179/1 117/181/1 121/185/1
f 121/185/1 123/187/1 125/189/1
f 97/161/1 101/165/1 105/162/1
f 121/185/1 125/189/1 113/163/1
f 125/189/1 97/161/1 113/163/1
f 134/193/1 133/194/1 131/195/1 129/196/1
f 135/197/1 134/198/1 129/199/1 130/200/1
f 136/201/1 135/202/1 130/203/1 132/204/1
f 133/205/1 136/206/1 132/207/1 131/208/1
f 137/209/1 138/210/1 140/211/1 139/212/1
f 142/213/1 141/214/1 146/215/1 147/216/1
f 143/217/1 142/213/1 147/216/1 148/218/1
f 144/219/1 143/217/1 148/218/1 149/220/1
f 145/221/1 144/219/1 149/220/1 150/222/1
f 151/223/1 152/224/1 145/221/1 150/222/1
f 141/214/1 154/225/1 153/226/1 146/215/1
f 154/227/1 155/228/1 140/229/1 156/230/1
f 190/231/1 193/232/1 191/233/1 188/234/1
f 158/235/1 157/236/1 172/237/1 173/238/1
f 159/239/1 158/240/1 173/241/1 174/242/1
f 160/243/1 159/244/1 174/245/1 175/246/1
f 161/247/1 160/248/1 175/249/1 176/250/1
f 162/251/1 161/252/1 176/253/1 177/254/1
f 163/255/1 162/256/1 177/257/1 178/258/1
f 164/259/1 163/260/1 178/261/1 179/262/1
f 165/263/1 164/264/1 179/265/1 180/266/1
f 166/267/1 165/268/1 180/269/1 181/270/1
f 167/271/1 166/272/1 181/273/1 182/274/1
f 168/275/1 167/276/1 182/277/1 183/278/1
f 169/279/1 168/280/1 183/281/1 184/282/1
f 170/283/1 169/284/1 184/285/1 185/286/1
f 171/287/1 170/288/1 185/289/1 186/290/1
f 157/291/1 189/292/1 187/293/1 172/294/1
f 189/295/1 190/296/1 188/297/1 187/298/1
f 192/299/1 195/300/1 171/301/1 186/290/1
f 193/302/1 194/303/1 196/304/1 195/305/1
f 197/306/1 198/307/1 200/308/1 199/309/1
f 201/310/1 197/311/1 221/312/1 211/313/1
f 202/314/1 201/315/1 211/316/1 212/317/1
f 203/318/1 202/319/1 212/320/1 213/321/1
f 204/322/1 203/323/1 213/324/1 214/325/1
f 205/326/1 204/327/1 214/328/1 215/329/1
f 206/330/1 205/331/1 215/332/1 216/333/1
f 207/334/1 206/335/1 216/336/1 217/337/1
f 208/338/1 207/339/1 217/340/1 218/341/1
f 209/342/1 208/343/1 218/344/1 219/345/1
f 210/346/1 209/347/1 219/348/1 220/349/1
f 224/350/1 210/351/1 220/352/1 222/353/1
f 223/354/1 224/355/1 225/356/1 199/309/1
